<svg width="79" height="79" viewBox="0 0 79 79" fill="none" xmlns="http://www.w3.org/2000/svg">
<g clip-path="url(#clip0_84_18)">
<path d="M37.0314 77.8891C37.0314 77.8891 61.3486 46.6594 79.0002 37.0312C71.1002 21.6016 31.8471 6.17188 31.8471 6.17188L7.03613 38.5125L31.2299 77.6422C32.5877 79.3703 35.1799 79.4937 37.0314 77.8891Z" fill="#BDBFC1"/>
<path d="M32.0938 71.4703C32.0938 71.4703 79.3704 38.5125 73.4454 19.5031C60.2376 20.7375 34.9329 2.71563 33.0813 0C25.6751 10.8625 10.1219 19.1328 3.08599 28.5141C0.246931 32.3406 -1.23432 35.0562 1.60474 39.3766L31.3532 77.5187C29.8719 75.7906 30.3657 73.075 32.0938 71.4703Z" fill="#FFFAFA"/>
<path d="M58.3857 39.9937L23.3295 12.5905L24.317 11.7265L59.6201 38.8827L58.3857 39.9937ZM22.0951 38.5124L9.50449 25.3046C15.5529 18.3921 20.4904 15.1827 20.4904 15.1827L34.8092 27.1562L22.0951 38.5124ZM30.4889 64.928L3.45605 31.8468C4.19668 28.8843 6.66543 27.5265 6.66543 27.5265L35.4264 60.4843L30.4889 64.928ZM38.0186 29.8718L33.6982 33.6983L49.3748 48.0171L54.3123 43.5733L38.0186 29.8718ZM29.3779 37.6483L25.0576 41.4749L39.3764 56.9046L44.4373 52.4608L29.3779 37.6483ZM34.9326 5.43115L36.2904 6.29521L34.192 12.0968L38.8826 7.8999L40.2404 8.76396L33.4514 14.8124L32.0936 13.8249L34.192 7.8999L29.6248 11.9733L28.5139 11.1093L34.9326 5.43115ZM45.7951 14.1952L41.8451 11.7265L40.3639 13.0843L43.9436 15.4296L42.7092 16.5405L39.2529 14.1952L37.5248 15.7999L41.4748 18.639L40.2404 19.7499L35.0561 15.9233L41.8451 9.8749L47.2764 13.3312L45.7951 14.1952ZM49.6217 14.5655L46.5357 19.0093L45.5482 20.2437L46.9061 19.3796L52.0904 16.1702L53.942 17.4046L50.6092 21.9718L49.6217 23.2062L51.1029 22.3421L56.7811 19.1327L58.7561 20.3671L48.5107 25.6749L46.9061 24.4405L50.3623 19.7499L51.4732 18.2687L49.7451 19.3796L44.4373 22.589L42.9561 21.478L48.017 13.4546L49.6217 14.5655ZM55.6701 26.9093C55.4232 27.2796 55.1764 27.6499 55.1764 27.8968C55.1764 28.3905 55.5467 29.0077 56.2873 29.5015C56.7811 29.8718 57.1514 30.1187 57.6451 30.2421C58.3857 30.489 59.0029 30.3655 59.4967 29.9952C59.7436 29.7483 59.867 29.5015 59.7436 29.1312C59.6201 28.7608 59.2498 28.3905 58.7561 27.8968L57.892 27.0327C57.0279 26.1687 56.6576 25.5515 56.4107 25.0577C56.1639 24.3171 56.4107 23.5765 57.1514 22.8358C57.892 22.2187 58.7561 21.8483 59.867 21.8483C60.9779 21.8483 62.0889 22.2187 63.4467 22.9593C64.5576 23.5765 65.1748 24.4405 65.5451 25.3046C65.9154 26.1687 65.5451 27.0327 64.8045 27.8968L62.7061 26.539C63.1998 26.0452 63.1998 25.5515 62.9529 25.0577C62.7061 24.6874 62.4592 24.4405 61.9654 24.0702C61.4717 23.6999 60.8545 23.5765 60.3607 23.453C59.867 23.453 59.4967 23.5765 59.1264 23.8233C58.8795 24.0702 58.7561 24.3171 59.0029 24.6874C59.1264 24.9343 59.3732 25.3046 59.9904 25.7983L61.3482 27.2796C61.9654 27.8968 62.3357 28.514 62.4592 29.0077C62.7061 29.7483 62.4592 30.489 61.7186 31.1062C60.9779 31.8468 59.9904 32.0937 58.7561 32.0937C57.5217 32.0937 56.4107 31.5999 55.1764 30.6124C53.942 29.7483 53.2014 28.7608 53.0779 27.8968C52.8311 27.0327 53.2014 26.1687 54.0654 25.428L55.6701 26.9093Z" fill="#107EFF"/>
<path d="M17.2594 21.5374C16.7001 22.0924 16.2556 22.7521 15.9513 23.4789C15.6469 24.2056 15.4887 24.9852 15.4856 25.7732C15.4825 26.5611 15.6347 27.3419 15.9334 28.071C16.2321 28.8001 16.6715 29.4633 17.2265 30.0226C17.7814 30.5819 18.4411 31.0264 19.1679 31.3308C19.8947 31.6352 20.6743 31.7934 21.4622 31.7965C22.2502 31.7995 23.031 31.6474 23.7601 31.3487C24.4892 31.05 25.1524 30.6106 25.7117 30.0556C26.271 29.5006 26.7155 28.8409 27.0199 28.1141C27.3242 27.3874 27.4825 26.6078 27.4855 25.8198C27.4886 25.0319 27.3364 24.2511 27.0377 23.522C26.739 22.7928 26.2996 22.1297 25.7447 21.5704C25.1897 21.0111 24.53 20.5665 23.8032 20.2622C23.0764 19.9578 22.2968 19.7996 21.5089 19.7965C20.721 19.7935 19.9402 19.9456 19.211 20.2443C18.4819 20.543 17.8188 20.9824 17.2594 21.5374Z" fill="#D7E0FF"/>
<path d="M25.7122 30.0549C24.8698 30.8907 23.7985 31.458 22.6337 31.685C21.4689 31.912 20.263 31.7885 19.1684 31.3301C18.0738 30.8717 17.1398 30.099 16.4843 29.1098C15.8289 28.1205 15.4815 26.9591 15.4861 25.7724C15.4907 24.5858 15.8471 23.4271 16.5102 22.443C17.1734 21.4588 18.1134 20.6935 19.2115 20.2436C20.3096 19.7937 21.5165 19.6796 22.6795 19.9157C23.8424 20.1517 24.9093 20.7273 25.7452 21.5697M17.2599 21.5367L22.1355 26.4502" stroke="#4147D5" stroke-linecap="round" stroke-linejoin="round"/>
<path d="M25.7453 21.5697C23.5589 21.7865 21.4981 22.6927 19.8605 24.1575C18.3831 25.7836 17.4608 27.8373 17.2271 30.022C18.9407 29.852 20.5849 29.2577 22.011 28.2926" stroke="#4147D5" stroke-linecap="round" stroke-linejoin="round"/>
<path d="M24.2405 24.3025C24.0366 24.0118 24.3951 23.6561 24.6849 23.8616C25.1996 24.2263 25.8112 24.4297 26.4418 24.4459C27.0725 24.462 27.6937 24.2903 28.2265 23.9524L28.3094 23.8983C28.6092 23.7093 28.9586 24.0571 28.7686 24.3583L28.7067 24.4549C28.3692 24.9864 28.1966 25.6059 28.2105 26.2354C28.2244 26.8649 28.4243 27.4761 28.7849 27.9922C28.9895 28.285 28.6304 28.6414 28.3384 28.4352C27.8253 28.0706 27.2158 27.866 26.5866 27.847C25.9574 27.8281 25.3367 27.9958 24.8026 28.3289L24.7047 28.3907C24.4028 28.5776 24.057 28.2263 24.249 27.9272L24.3038 27.8447C24.6458 27.3146 24.8224 26.6947 24.8111 26.064C24.7998 25.4332 24.6012 24.8201 24.2405 24.3025Z" fill="white"/>
<path d="M24.2405 24.3025C24.0366 24.0118 24.3951 23.6561 24.6849 23.8616C25.1996 24.2263 25.8112 24.4297 26.4418 24.4459C27.0725 24.462 27.6937 24.2903 28.2265 23.9524L28.3094 23.8983C28.6092 23.7093 28.9586 24.0571 28.7686 24.3583L28.7067 24.4549C28.3692 24.9864 28.1966 25.6059 28.2105 26.2354C28.2244 26.8649 28.4243 27.4761 28.7849 27.9922C28.9895 28.285 28.6304 28.6414 28.3384 28.4352C27.8253 28.0706 27.2158 27.866 26.5866 27.847C25.9574 27.8281 25.3367 27.9958 24.8026 28.3289L24.7047 28.3907C24.4028 28.5776 24.057 28.2263 24.249 27.9272L24.3038 27.8447C24.6458 27.3146 24.8224 26.6947 24.8111 26.064C24.7998 25.4332 24.6012 24.8201 24.2405 24.3025Z" stroke="#4147D5" stroke-linecap="round" stroke-linejoin="round"/>
</g>
<defs>
<clipPath id="clip0_84_18">
<rect width="79" height="79" fill="white"/>
</clipPath>
</defs>
</svg>
